<?xml version="1.0" encoding="UTF-8" standalone="no"?>
<!DOCTYPE svg PUBLIC "-//W3C//DTD SVG 1.1//EN"
 "http://www.w3.org/Graphics/SVG/1.1/DTD/svg11.dtd">
<!-- Generated by graphviz version 2.40.1 (20161225.0304)
 -->
<!-- Title: G Pages: 1 -->
<svg width="522pt" height="265pt"
 viewBox="0.00 0.00 522.00 265.40" xmlns="http://www.w3.org/2000/svg" xmlns:xlink="http://www.w3.org/1999/xlink">
<g id="graph0" class="graph" transform="scale(1 1) rotate(0) translate(4 261.4)">
<title>G</title>
<polygon fill="#ffffff" stroke="transparent" points="-4,4 -4,-261.4 518,-261.4 518,4 -4,4"/>
<g id="clust1" class="cluster">
<title>cluster_programm</title>
<polygon fill="none" stroke="#000000" points="8,-8 8,-212.4 506,-212.4 506,-8 8,-8"/>
<text text-anchor="middle" x="257" y="-195.8" font-family="Times,serif" font-size="14.00" fill="#000000">Programm</text>
</g>
<g id="clust2" class="cluster">
<title>cluster_setup</title>
<polygon fill="none" stroke="#000000" points="29,-101.8 29,-179.6 299,-179.6 299,-101.8 29,-101.8"/>
<text text-anchor="middle" x="164" y="-163" font-family="Times,serif" font-size="14.00" fill="#000000">Setup</text>
</g>
<g id="clust4" class="cluster">
<title>cluster_loop</title>
<polygon fill="none" stroke="#000000" points="16,-16 16,-93.8 498,-93.8 498,-16 16,-16"/>
<text text-anchor="middle" x="257" y="-77.2" font-family="Times,serif" font-size="14.00" fill="#000000">Loop</text>
</g>
<!-- Defines -->
<g id="node1" class="node">
<title>Defines</title>
<polygon fill="none" stroke="#000000" points="181.2342,-220.9 181.2342,-256.9 240.7658,-256.9 240.7658,-220.9 181.2342,-220.9"/>
<text text-anchor="middle" x="211" y="-234.7" font-family="Times,serif" font-size="14.00" fill="#000000">Defines</text>
</g>
<!-- Lüfter init -->
<g id="node5" class="node">
<title>Lüfter init</title>
<polygon fill="none" stroke="#000000" points="206.5943,-110.3 206.5943,-146.3 291.4057,-146.3 291.4057,-110.3 206.5943,-110.3"/>
<text text-anchor="middle" x="249" y="-124.1" font-family="Times,serif" font-size="14.00" fill="#000000">Lüfter init</text>
</g>
<!-- Defines&#45;&gt;Lüfter init -->
<!-- Layout -->
<g id="node2" class="node">
<title>Layout</title>
<polygon fill="none" stroke="#000000" points="259.1711,-220.9 259.1711,-256.9 314.8289,-256.9 314.8289,-220.9 259.1711,-220.9"/>
<text text-anchor="middle" x="287" y="-234.7" font-family="Times,serif" font-size="14.00" fill="#000000">Layout</text>
</g>
<!-- Layout&#45;&gt;Lüfter init -->
<!-- Pins init -->
<g id="node3" class="node">
<title>Pins init</title>
<polygon fill="none" stroke="#000000" points="36.8552,-110.3 36.8552,-146.3 99.1448,-146.3 99.1448,-110.3 36.8552,-110.3"/>
<text text-anchor="middle" x="68" y="-124.1" font-family="Times,serif" font-size="14.00" fill="#000000">Pins init</text>
</g>
<!-- PWM init -->
<g id="node4" class="node">
<title>PWM init</title>
<polygon fill="none" stroke="#000000" points="117.1932,-110.3 117.1932,-146.3 188.8068,-146.3 188.8068,-110.3 117.1932,-110.3"/>
<text text-anchor="middle" x="153" y="-124.1" font-family="Times,serif" font-size="14.00" fill="#000000">PWM init</text>
</g>
<!-- Pins init&#45;&gt;PWM init -->
<g id="edge1" class="edge">
<title>Pins init&#45;&gt;PWM init</title>
<path fill="none" stroke="#000000" d="M99.2733,-128.2653C101.5842,-128.2655 104.1029,-128.2662 106.9267,-128.2675"/>
<polygon fill="#000000" stroke="#000000" points="107.0969,-131.7675 117.0989,-128.2732 107.1009,-124.7675 107.0969,-131.7675"/>
</g>
<!-- Gas auslesen -->
<g id="node6" class="node">
<title>Gas auslesen</title>
<polygon fill="none" stroke="#000000" points="23.6553,-24.5 23.6553,-60.5 112.3447,-60.5 112.3447,-24.5 23.6553,-24.5"/>
<text text-anchor="middle" x="68" y="-38.3" font-family="Times,serif" font-size="14.00" fill="#000000">Gas auslesen</text>
</g>
<!-- Pins init&#45;&gt;Gas auslesen -->
<!-- PWM init&#45;&gt;Lüfter init -->
<g id="edge2" class="edge">
<title>PWM init&#45;&gt;Lüfter init</title>
<path fill="none" stroke="#000000" d="M188.9095,-128.1975C191.1674,-128.1983 193.6021,-128.2002 196.2819,-128.2031"/>
<polygon fill="#000000" stroke="#000000" points="196.4327,-131.7032 206.4376,-128.2174 196.4426,-124.7032 196.4327,-131.7032"/>
</g>
<!-- PWM stellen -->
<g id="node7" class="node">
<title>PWM stellen</title>
<polygon fill="none" stroke="#000000" points="130.2563,-24.5 130.2563,-60.5 219.7437,-60.5 219.7437,-24.5 130.2563,-24.5"/>
<text text-anchor="middle" x="175" y="-38.3" font-family="Times,serif" font-size="14.00" fill="#000000">PWM stellen</text>
</g>
<!-- Gas auslesen&#45;&gt;PWM stellen -->
<g id="edge3" class="edge">
<title>Gas auslesen&#45;&gt;PWM stellen</title>
<path fill="none" stroke="#000000" d="M112.5262,-33.9881C114.8471,-34.0885 117.3207,-34.2623 120.0015,-34.5094"/>
<polygon fill="#000000" stroke="#000000" points="119.6662,-37.9936 129.9945,-35.6321 120.4478,-31.0374 119.6662,-37.9936"/>
</g>
<!-- Temperatur auslesen -->
<g id="node8" class="node">
<title>Temperatur auslesen</title>
<polygon fill="none" stroke="#000000" points="237.8888,-24.5 237.8888,-60.5 370.1112,-60.5 370.1112,-24.5 237.8888,-24.5"/>
<text text-anchor="middle" x="304" y="-38.3" font-family="Times,serif" font-size="14.00" fill="#000000">Temperatur auslesen</text>
</g>
<!-- PWM stellen&#45;&gt;Temperatur auslesen -->
<g id="edge4" class="edge">
<title>PWM stellen&#45;&gt;Temperatur auslesen</title>
<path fill="none" stroke="#000000" d="M220.0201,-25.4825C225.7595,-24.1119 231.0542,-23.4654 236.5294,-23.5431"/>
<polygon fill="#000000" stroke="#000000" points="236.44,-27.0492 246.7148,-24.4649 237.071,-20.0777 236.44,-27.0492"/>
</g>
<!-- Lüfter stellen -->
<g id="node9" class="node">
<title>Lüfter stellen</title>
<polygon fill="none" stroke="#000000" points="387.6574,-24.5 387.6574,-60.5 490.3426,-60.5 490.3426,-24.5 387.6574,-24.5"/>
<text text-anchor="middle" x="439" y="-38.3" font-family="Times,serif" font-size="14.00" fill="#000000">Lüfter stellen</text>
</g>
<!-- Temperatur auslesen&#45;&gt;Lüfter stellen -->
<g id="edge5" class="edge">
<title>Temperatur auslesen&#45;&gt;Lüfter stellen</title>
<path fill="none" stroke="#000000" d="M370.2739,-31.4513C372.7239,-31.1723 375.04,-30.945 377.2463,-30.7693"/>
<polygon fill="#000000" stroke="#000000" points="377.6382,-34.2556 387.4753,-30.3208 377.3315,-27.2623 377.6382,-34.2556"/>
</g>
</g>
</svg>
