<?xml version="1.0" encoding="UTF-8" standalone="no"?>
<!DOCTYPE svg PUBLIC "-//W3C//DTD SVG 1.1//EN"
 "http://www.w3.org/Graphics/SVG/1.1/DTD/svg11.dtd">
<!-- Generated by graphviz version 2.40.1 (20161225.0304)
 -->
<!-- Title: G Pages: 1 -->
<svg width="506pt" height="188pt"
 viewBox="0.00 0.00 506.00 187.60" xmlns="http://www.w3.org/2000/svg" xmlns:xlink="http://www.w3.org/1999/xlink">
<g id="graph0" class="graph" transform="scale(1 1) rotate(0) translate(4 183.6)">
<title>G</title>
<polygon fill="#ffffff" stroke="transparent" points="-4,4 -4,-183.6 502,-183.6 502,4 -4,4"/>
<g id="clust1" class="cluster">
<title>cluster_setup</title>
<polygon fill="none" stroke="#000000" points="21,-93.8 21,-171.6 291,-171.6 291,-93.8 21,-93.8"/>
<text text-anchor="middle" x="156" y="-155" font-family="Times,serif" font-size="14.00" fill="#000000">Setup</text>
</g>
<g id="clust3" class="cluster">
<title>cluster_loop</title>
<polygon fill="none" stroke="#000000" points="8,-8 8,-85.8 490,-85.8 490,-8 8,-8"/>
<text text-anchor="middle" x="249" y="-69.2" font-family="Times,serif" font-size="14.00" fill="#000000">Loop</text>
</g>
<!-- Pins init -->
<g id="node1" class="node">
<title>Pins init</title>
<polygon fill="none" stroke="#000000" points="28.8552,-102.3 28.8552,-138.3 91.1448,-138.3 91.1448,-102.3 28.8552,-102.3"/>
<text text-anchor="middle" x="60" y="-116.1" font-family="Times,serif" font-size="14.00" fill="#000000">Pins init</text>
</g>
<!-- PWM init -->
<g id="node2" class="node">
<title>PWM init</title>
<polygon fill="none" stroke="#000000" points="109.1932,-102.3 109.1932,-138.3 180.8068,-138.3 180.8068,-102.3 109.1932,-102.3"/>
<text text-anchor="middle" x="145" y="-116.1" font-family="Times,serif" font-size="14.00" fill="#000000">PWM init</text>
</g>
<!-- Pins init&#45;&gt;PWM init -->
<g id="edge1" class="edge">
<title>Pins init&#45;&gt;PWM init</title>
<path fill="none" stroke="#000000" d="M91.2824,-122.8948C93.5953,-122.8805 96.1118,-122.8277 98.9314,-122.7363"/>
<polygon fill="#000000" stroke="#000000" points="99.2414,-126.2266 109.0872,-122.3136 98.9503,-119.2326 99.2414,-126.2266"/>
</g>
<!-- Gas auslesen -->
<g id="node4" class="node">
<title>Gas auslesen</title>
<polygon fill="none" stroke="#000000" points="15.6553,-16.5 15.6553,-52.5 104.3447,-52.5 104.3447,-16.5 15.6553,-16.5"/>
<text text-anchor="middle" x="60" y="-30.3" font-family="Times,serif" font-size="14.00" fill="#000000">Gas auslesen</text>
</g>
<!-- Pins init&#45;&gt;Gas auslesen -->
<!-- Lüfter init -->
<g id="node3" class="node">
<title>Lüfter init</title>
<polygon fill="none" stroke="#000000" points="198.5943,-102.3 198.5943,-138.3 283.4057,-138.3 283.4057,-102.3 198.5943,-102.3"/>
<text text-anchor="middle" x="241" y="-116.1" font-family="Times,serif" font-size="14.00" fill="#000000">Lüfter init</text>
</g>
<!-- PWM init&#45;&gt;Lüfter init -->
<g id="edge2" class="edge">
<title>PWM init&#45;&gt;Lüfter init</title>
<path fill="none" stroke="#000000" d="M180.9196,-127.1859C183.1943,-127.1724 185.6237,-127.0783 188.2869,-126.9035"/>
<polygon fill="#000000" stroke="#000000" points="188.7109,-130.3796 198.3574,-125.9983 188.0842,-123.4077 188.7109,-130.3796"/>
</g>
<!-- PWM stellen -->
<g id="node5" class="node">
<title>PWM stellen</title>
<polygon fill="none" stroke="#000000" points="122.2563,-16.5 122.2563,-52.5 211.7437,-52.5 211.7437,-16.5 122.2563,-16.5"/>
<text text-anchor="middle" x="167" y="-30.3" font-family="Times,serif" font-size="14.00" fill="#000000">PWM stellen</text>
</g>
<!-- Gas auslesen&#45;&gt;PWM stellen -->
<g id="edge3" class="edge">
<title>Gas auslesen&#45;&gt;PWM stellen</title>
<path fill="none" stroke="#000000" d="M104.6135,-28.5553C106.9317,-28.6429 109.4124,-28.7787 112.1047,-28.9625"/>
<polygon fill="#000000" stroke="#000000" points="111.8958,-32.457 122.145,-29.7728 112.459,-25.4796 111.8958,-32.457"/>
</g>
<!-- Temperatur auslesen -->
<g id="node6" class="node">
<title>Temperatur auslesen</title>
<polygon fill="none" stroke="#000000" points="229.8888,-16.5 229.8888,-52.5 362.1112,-52.5 362.1112,-16.5 229.8888,-16.5"/>
<text text-anchor="middle" x="296" y="-30.3" font-family="Times,serif" font-size="14.00" fill="#000000">Temperatur auslesen</text>
</g>
<!-- PWM stellen&#45;&gt;Temperatur auslesen -->
<g id="edge4" class="edge">
<title>PWM stellen&#45;&gt;Temperatur auslesen</title>
<path fill="none" stroke="#000000" d="M211.7769,-17.5932C215.6251,-16.7563 219.3229,-16.2602 223.0806,-16.1048"/>
<polygon fill="#000000" stroke="#000000" points="223.1873,-19.6112 233.3117,-16.4895 223.4503,-12.6162 223.1873,-19.6112"/>
</g>
<!-- Lüfter stellen -->
<g id="node7" class="node">
<title>Lüfter stellen</title>
<polygon fill="none" stroke="#000000" points="379.6574,-16.5 379.6574,-52.5 482.3426,-52.5 482.3426,-16.5 379.6574,-16.5"/>
<text text-anchor="middle" x="431" y="-30.3" font-family="Times,serif" font-size="14.00" fill="#000000">Lüfter stellen</text>
</g>
<!-- Temperatur auslesen&#45;&gt;Lüfter stellen -->
<g id="edge5" class="edge">
<title>Temperatur auslesen&#45;&gt;Lüfter stellen</title>
<path fill="none" stroke="#000000" d="M362.2976,-26.6641C364.8895,-26.4422 367.3301,-26.2584 369.6442,-26.1126"/>
<polygon fill="#000000" stroke="#000000" points="369.7953,-29.6094 379.6455,-25.7078 369.5121,-22.6151 369.7953,-29.6094"/>
</g>
</g>
</svg>
