<?xml version="1.0" encoding="UTF-8" standalone="no"?>
<!DOCTYPE svg PUBLIC "-//W3C//DTD SVG 1.1//EN"
 "http://www.w3.org/Graphics/SVG/1.1/DTD/svg11.dtd">
<!-- Generated by graphviz version 2.40.1 (20161225.0304)
 -->
<!-- Title: G Pages: 1 -->
<svg width="513pt" height="794pt"
 viewBox="0.00 0.00 513.26 793.80" xmlns="http://www.w3.org/2000/svg" xmlns:xlink="http://www.w3.org/1999/xlink">
<g id="graph0" class="graph" transform="scale(1 1) rotate(0) translate(4 789.8)">
<title>G</title>
<polygon fill="#ffffff" stroke="transparent" points="-4,4 -4,-789.8 509.2574,-789.8 509.2574,4 -4,4"/>
<g id="clust1" class="cluster">
<title>cluster_setup</title>
<polygon fill="none" stroke="#000000" points="80,-341.6 80,-707 232,-707 232,-341.6 80,-341.6"/>
<text text-anchor="middle" x="156" y="-690.4" font-family="Times,serif" font-size="14.00" fill="#000000">Setup</text>
</g>
<g id="clust2" class="cluster">
<title>cluster_loop</title>
<polygon fill="none" stroke="#000000" points="124,-8 124,-322.6 231,-322.6 231,-8 124,-8"/>
<text text-anchor="middle" x="177.5" y="-306" font-family="Times,serif" font-size="14.00" fill="#000000">Loop</text>
</g>
<!-- Pins Setup -->
<g id="node1" class="node">
<title>Pins Setup</title>
<ellipse fill="none" stroke="#000000" cx="152" cy="-656.2" rx="52.1649" ry="18"/>
<text text-anchor="middle" x="152" y="-652" font-family="Times,serif" font-size="14.00" fill="#000000">Pins Setup</text>
</g>
<!-- PWM Setup -->
<g id="node2" class="node">
<title>PWM Setup</title>
<ellipse fill="none" stroke="#000000" cx="147" cy="-529.4" rx="58.5278" ry="18"/>
<text text-anchor="middle" x="147" y="-525.2" font-family="Times,serif" font-size="14.00" fill="#000000">PWM Setup</text>
</g>
<!-- Pins Setup&#45;&gt;PWM Setup -->
<g id="edge1" class="edge">
<title>Pins Setup&#45;&gt;PWM Setup</title>
<path fill="none" stroke="#000000" stroke-dasharray="5,2" d="M151.2836,-638.0327C150.4556,-617.0352 149.083,-582.2261 148.1151,-557.679"/>
<polygon fill="#000000" stroke="#000000" points="151.6064,-557.3879 147.715,-547.5336 144.6119,-557.6638 151.6064,-557.3879"/>
</g>
<!-- Lüfter Setup -->
<g id="node3" class="node">
<title>Lüfter Setup</title>
<ellipse fill="none" stroke="#000000" cx="156" cy="-367.6" rx="67.7352" ry="18"/>
<text text-anchor="middle" x="156" y="-363.4" font-family="Times,serif" font-size="14.00" fill="#000000">Lüfter Setup</text>
</g>
<!-- PWM Setup&#45;&gt;Lüfter Setup -->
<g id="edge2" class="edge">
<title>PWM Setup&#45;&gt;Lüfter Setup</title>
<path fill="none" stroke="#000000" stroke-dasharray="5,2" d="M147.3219,-511.0429C147.8452,-486.5235 149.1266,-441.7426 152,-403.6 152.1833,-401.1662 152.403,-398.6429 152.6439,-396.1131"/>
<polygon fill="#000000" stroke="#000000" points="156.1537,-396.2007 153.7136,-385.8907 149.1917,-395.4721 156.1537,-396.2007"/>
</g>
<!-- Gas -->
<g id="node4" class="node">
<title>Gas</title>
<ellipse fill="none" stroke="#000000" cx="159" cy="-271.8" rx="27" ry="18"/>
<text text-anchor="middle" x="159" y="-267.6" font-family="Times,serif" font-size="14.00" fill="#000000">Gas</text>
</g>
<!-- Lüfter Setup&#45;&gt;Gas -->
<g id="edge6" class="edge">
<title>Lüfter Setup&#45;&gt;Gas</title>
<path fill="none" stroke="#000000" stroke-dasharray="5,2" d="M156.8141,-341.6031C156.9015,-338.8123 156.9928,-335.8951 157.0865,-332.9034"/>
<polygon fill="#000000" stroke="#000000" points="160.5944,-332.7047 157.4092,-322.6 153.5978,-332.4855 160.5944,-332.7047"/>
</g>
<!-- PWM -->
<g id="node5" class="node">
<title>PWM</title>
<ellipse fill="none" stroke="#000000" cx="170" cy="-145" rx="34.2084" ry="18"/>
<text text-anchor="middle" x="170" y="-140.8" font-family="Times,serif" font-size="14.00" fill="#000000">PWM</text>
</g>
<!-- Gas&#45;&gt;PWM -->
<g id="edge7" class="edge">
<title>Gas&#45;&gt;PWM</title>
<path fill="none" stroke="#000000" stroke-dasharray="5,2" d="M152.8941,-254.0311C148.6985,-239.4611 144.4705,-218.3271 148,-200 149.8087,-190.6083 153.2066,-180.7817 156.8005,-172.0757"/>
<polygon fill="#000000" stroke="#000000" points="160.0551,-173.369 160.867,-162.8053 153.6447,-170.557 160.0551,-173.369"/>
</g>
<!-- Gas&#45;&gt;PWM -->
<g id="edge9" class="edge">
<title>Gas&#45;&gt;PWM</title>
<path fill="none" stroke="#000000" d="M160.576,-253.6327C162.3976,-232.6352 165.4173,-197.8261 167.5468,-173.279"/>
<polygon fill="#000000" stroke="#000000" points="171.0494,-173.3988 168.4269,-163.1336 164.0756,-172.7937 171.0494,-173.3988"/>
<text text-anchor="middle" x="191.6231" y="-204.2" font-family="Times,serif" font-size="14.00" fill="#000000">Gas Wert</text>
</g>
<!-- Lüfter -->
<g id="node6" class="node">
<title>Lüfter</title>
<ellipse fill="none" stroke="#000000" cx="180" cy="-34" rx="43.4163" ry="18"/>
<text text-anchor="middle" x="180" y="-29.8" font-family="Times,serif" font-size="14.00" fill="#000000">Lüfter</text>
</g>
<!-- PWM&#45;&gt;Lüfter -->
<g id="edge8" class="edge">
<title>PWM&#45;&gt;Lüfter</title>
<path fill="none" stroke="#000000" stroke-dasharray="5,2" d="M171.6513,-126.6706C173.2313,-109.1329 175.6369,-82.4306 177.4607,-62.1867"/>
<polygon fill="#000000" stroke="#000000" points="180.968,-62.2621 178.3794,-51.9883 173.9962,-61.6339 180.968,-62.2621"/>
</g>
<!-- Layout -->
<g id="node7" class="node">
<title>Layout</title>
<ellipse fill="none" stroke="#000000" cx="214" cy="-767.8" rx="38.2838" ry="18"/>
<text text-anchor="middle" x="214" y="-763.6" font-family="Times,serif" font-size="14.00" fill="#000000">Layout</text>
</g>
<!-- Layout&#45;&gt;Pins Setup -->
<g id="edge3" class="edge">
<title>Layout&#45;&gt;Pins Setup</title>
<path fill="none" stroke="#000000" d="M204.3125,-750.3625C194.2708,-732.2875 178.4465,-703.8037 166.8296,-682.8933"/>
<polygon fill="#000000" stroke="#000000" points="169.7401,-680.9252 161.8241,-673.8834 163.621,-684.3247 169.7401,-680.9252"/>
<text text-anchor="middle" x="205.0589" y="-719.2" font-family="Times,serif" font-size="14.00" fill="#000000">Pins</text>
</g>
<!-- Layout&#45;&gt;Lüfter Setup -->
<g id="edge4" class="edge">
<title>Layout&#45;&gt;Lüfter Setup</title>
<path fill="none" stroke="#000000" d="M219.2548,-749.8075C225.1804,-727.8957 234,-689.6622 234,-656.2 234,-656.2 234,-656.2 234,-573.8 234,-501.0677 204.454,-487.7518 177,-420.4 173.6643,-412.2168 170.0918,-403.2956 166.8566,-395.1548"/>
<polygon fill="#000000" stroke="#000000" points="170.0536,-393.7217 163.1163,-385.714 163.5458,-396.3001 170.0536,-393.7217"/>
<text text-anchor="middle" x="271.1287" y="-569.6" font-family="Times,serif" font-size="14.00" fill="#000000">Lüfter Pins</text>
</g>
<!-- Layout&#45;&gt;Gas -->
<g id="edge10" class="edge">
<title>Layout&#45;&gt;Gas</title>
<path fill="none" stroke="#000000" d="M175.7411,-764.925C114.1871,-757.9865 0,-734.5554 0,-656.2 0,-656.2 0,-656.2 0,-367.6 0,-310.823 75.3025,-286.8214 122.2632,-277.3736"/>
<polygon fill="#000000" stroke="#000000" points="123.2051,-280.758 132.387,-275.4719 121.9127,-273.8783 123.2051,-280.758"/>
<text text-anchor="middle" x="35.0014" y="-525.2" font-family="Times,serif" font-size="14.00" fill="#000000">Gas Poti Pin</text>
</g>
<!-- Layout&#45;&gt;Lüfter -->
<g id="edge11" class="edge">
<title>Layout&#45;&gt;Lüfter</title>
<path fill="none" stroke="#000000" d="M252.2957,-765.1666C314.5921,-758.5755 431,-735.6321 431,-656.2 431,-656.2 431,-656.2 431,-89.5 431,-69.2802 305.2132,-49.8747 231.7321,-40.2637"/>
<polygon fill="#000000" stroke="#000000" points="232.0949,-36.7816 221.7293,-38.9734 231.1994,-43.724 232.0949,-36.7816"/>
<text text-anchor="middle" x="468.1287" y="-363.4" font-family="Times,serif" font-size="14.00" fill="#000000">Lüfter Pins</text>
</g>
<!-- Defines -->
<g id="node8" class="node">
<title>Defines</title>
<ellipse fill="none" stroke="#000000" cx="300" cy="-456.4" rx="41.1277" ry="18"/>
<text text-anchor="middle" x="300" y="-452.2" font-family="Times,serif" font-size="14.00" fill="#000000">Defines</text>
</g>
<!-- Defines&#45;&gt;Lüfter Setup -->
<g id="edge5" class="edge">
<title>Defines&#45;&gt;Lüfter Setup</title>
<path fill="none" stroke="#000000" d="M265.2281,-446.5691C239.8945,-438.9804 208.1333,-428.4521 196.941,-420.4 187.1367,-413.3464 178.5348,-403.2957 171.7792,-393.8529"/>
<polygon fill="#000000" stroke="#000000" points="174.6075,-391.7869 166.1127,-385.4553 168.8049,-395.7024 174.6075,-391.7869"/>
<text text-anchor="middle" x="250.0295" y="-407.8" font-family="Times,serif" font-size="14.00" fill="#000000">Start Lüfter Wert</text>
</g>
<!-- Defines&#45;&gt;Lüfter -->
<g id="edge12" class="edge">
<title>Defines&#45;&gt;Lüfter</title>
<path fill="none" stroke="#000000" d="M306.2213,-438.2747C311.7625,-420.4972 319,-392.5097 319,-367.6 319,-367.6 319,-367.6 319,-89.5 319,-69.5579 269.0302,-53.5776 229.0123,-43.9773"/>
<polygon fill="#000000" stroke="#000000" points="229.6214,-40.5257 219.0892,-41.6755 228.0396,-47.3447 229.6214,-40.5257"/>
<text text-anchor="middle" x="361.1673" y="-204.2" font-family="Times,serif" font-size="14.00" fill="#000000">Lüfter Werte</text>
</g>
</g>
</svg>
